<svg width="500" height="500" viewBox="0 0 500 500" fill="currentColor" xmlns="http://www.w3.org/2000/svg">
<path d="M325 25C325 38.8071 336.193 50 350 50H462.5C483.211 50 500 66.7893 500 87.5V95C500 111.569 486.569 125 470 125C453.431 125 440 138.431 440 155V450C440 477.614 417.614 500 390 500H110C82.3858 500 60 477.614 60 450V155C60 138.431 46.5685 125 30 125C13.4315 125 0 111.569 0 95V87.5C0 66.7893 16.7893 50 37.5 50H150C163.807 50 175 38.8071 175 25C175 11.1929 186.193 0 200 0H300C313.807 0 325 11.1929 325 25ZM114.286 392.857C114.286 407.848 126.438 420 141.429 420C156.419 420 168.571 407.848 168.571 392.857V152.143C168.571 137.152 156.419 125 141.429 125C126.438 125 114.286 137.152 114.286 152.143V392.857ZM222.857 417.857C222.857 432.848 235.01 445 250 445C264.99 445 277.143 432.848 277.143 417.857V177.143C277.143 162.152 264.99 150 250 150C235.01 150 222.857 162.152 222.857 177.143V417.857ZM331.429 392.857C331.429 407.848 343.581 420 358.571 420C373.562 420 385.714 407.848 385.714 392.857V152.143C385.714 137.152 373.562 125 358.571 125C343.581 125 331.429 137.152 331.429 152.143V392.857Z"/>
</svg>
