<svg width="500" height="500" viewBox="0 0 500 500" fill="currentColor" xmlns="http://www.w3.org/2000/svg">
<path d="M250 37.5C250 58.2107 266.789 75 287.5 75C308.211 75 325 58.2107 325 37.5C325 16.7893 341.789 0 362.5 0C383.211 0 400 16.7893 400 37.5C400 58.2107 416.789 75 437.5 75H450C477.614 75 500 97.3858 500 125V450C500 477.614 477.614 500 450 500H50C22.3858 500 0 477.614 0 450V125C0 97.3858 22.3858 75 50 75H62.5C83.2107 75 100 58.2107 100 37.5C100 16.7893 116.789 0 137.5 0H212.5C233.211 0 250 16.7893 250 37.5ZM50 408C50 435.614 72.3858 458 100 458H400C427.614 458 450 435.614 450 408V168C450 140.386 427.614 118 400 118H100C72.3858 118 50 140.386 50 168V408ZM250 188C305.228 188 350 232.772 350 288C350 343.228 305.228 388 250 388C194.772 388 150 343.228 150 288C150 232.772 194.772 188 250 188ZM250 238C222.386 238 200 260.386 200 288C200 315.614 222.386 338 250 338C277.614 338 300 315.614 300 288C300 260.386 277.614 238 250 238Z"/>
</svg>
