<svg width="500" height="500" viewBox="0 0 500 500" fill="currentColor" xmlns="http://www.w3.org/2000/svg">
<path fill-rule="evenodd" clip-rule="evenodd" d="M488.439 266.86C473.913 281.323 451.159 280.797 437.238 265.679L325.847 144.697C284.165 99.4276 215.56 99.4276 173.879 144.697L62.3044 265.877C48.4853 280.886 25.8973 281.407 11.4767 267.05C-3.37151 252.267 -3.88048 227.419 10.3484 211.966L174.251 33.9523C215.933 -11.3174 284.538 -11.3174 326.22 33.9523L489.576 211.372C503.909 226.939 503.396 251.969 488.439 266.86Z"/>
<path fill-rule="evenodd" clip-rule="evenodd" d="M488.439 489.376C473.913 503.838 451.159 503.313 437.238 488.194L325.847 367.213C284.165 321.943 215.56 321.943 173.879 367.213L62.3044 488.392C48.4853 503.401 25.8973 503.922 11.4767 489.565C-3.37151 474.783 -3.88048 449.935 10.3484 434.481L174.251 256.468C215.933 211.198 284.538 211.198 326.22 256.468L489.576 433.887C503.909 449.454 503.396 474.485 488.439 489.376Z"/>
</svg>
