<svg width="500" height="500" viewBox="0 0 500 500" fill="currentColor" xmlns="http://www.w3.org/2000/svg">
<path d="M212.5 350C233.211 350 250 366.789 250 387.5H462.5C483.211 387.5 500 404.289 500 425C500 445.711 483.211 462.5 462.5 462.5H250C250 483.211 233.211 500 212.5 500C191.789 500 175 483.211 175 462.5V387.5C175 366.789 191.789 350 212.5 350Z"/>
<path d="M112.5 388C133.211 388 150 404.789 150 425.5C150 446.211 133.211 463 112.5 463H37.5C16.7893 463 0 446.211 0 425.5C0 404.789 16.7893 388 37.5 388H112.5Z"/>
<path d="M287.5 175C308.211 175 325 191.789 325 212.5V287.5C325 308.211 308.211 325 287.5 325C266.789 325 250 308.211 250 287.5H37.5C16.7893 287.5 0 270.711 0 250C0 229.289 16.7893 212.5 37.5 212.5H250C250 191.789 266.789 175 287.5 175Z"/>
<path d="M462.5 213C483.211 213 500 229.789 500 250.5C500 271.211 483.211 288 462.5 288H387.5C366.789 288 350 271.211 350 250.5C350 229.789 366.789 213 387.5 213H462.5Z"/>
<path d="M212.5 0C233.211 0 250 16.7893 250 37.5H462.5C483.211 37.5 500 54.2893 500 75C500 95.7107 483.211 112.5 462.5 112.5H250C250 133.211 233.211 150 212.5 150C191.789 150 175 133.211 175 112.5V37.5C175 16.7893 191.789 0 212.5 0Z"/>
<path d="M112.5 38C133.211 38 150 54.7893 150 75.5C150 96.2107 133.211 113 112.5 113H37.5C16.7893 113 0 96.2107 0 75.5C0 54.7893 16.7893 38 37.5 38H112.5Z"/>
</svg>
