<svg width="500" height="500" viewBox="0 0 500 500" fill="currentColor" xmlns="http://www.w3.org/2000/svg">
<path fill-rule="evenodd" clip-rule="evenodd" d="M347.619 94.4641C347.619 67.8741 338.219 45.4826 319.418 27.2897C300.618 9.09653 277.478 0 250.001 0C222.522 0 199.383 9.09653 180.582 27.2897C161.781 45.4826 152.381 67.8741 152.381 94.4641C152.381 97.5215 149.902 100 146.845 100H37.5C27.5 100 18.75 103.854 11.25 111.562C3.75 119.271 0 127.917 0 137.5V238.304C0 247.054 2.70813 255.179 8.125 262.679C10.909 266.533 13.7483 269.508 16.6427 271.602C20.4218 274.335 23.8309 278.269 23.8607 282.934L25 461.25C25 470.833 28.75 479.688 36.25 487.813C43.75 495.938 52.5 500 62.5 500H437.5C447.083 500 455.729 495.938 463.438 487.813C471.146 479.688 475 470.833 475 461.25L475.227 283.671C475.233 278.758 478.993 274.655 483.021 271.841C486.032 269.737 488.983 266.683 491.875 262.679C497.292 255.179 500 247.054 500 238.304V137.5C500 127.917 496.146 119.271 488.438 111.562C480.729 103.854 472.083 100 462.5 100H353.155C350.098 100 347.619 97.5215 347.619 94.4641ZM25.7141 147.143C25.7141 133.993 36.3739 123.333 49.5239 123.333H450.476C463.625 123.333 474.286 133.993 474.286 147.143V226.667C474.286 239.816 463.625 250.476 450.476 250.476H49.5239C36.3739 250.476 25.7141 239.816 25.7141 226.667V147.143ZM180.952 96.0458C180.952 98.2297 182.722 100 184.906 100H315.094C317.278 100 319.048 98.2297 319.048 96.0458C319.048 77.0531 312.399 61.0591 299.101 48.0641C285.803 35.069 269.435 28.5715 250 28.5715C230.565 28.5715 214.197 35.069 200.9 48.0641C187.601 61.0591 180.952 77.0531 180.952 96.0458ZM192.857 316.667C182.338 316.667 173.81 325.195 173.81 335.714C173.81 346.234 182.338 354.762 192.857 354.762H307.143C317.662 354.762 326.19 346.234 326.19 335.714C326.19 325.195 317.662 316.667 307.143 316.667H192.857Z"/>
</svg>
