<svg width="500" height="500" viewBox="0 0 500 500" fill="currentColor" xmlns="http://www.w3.org/2000/svg">
<path d="M192.857 316.667C182.338 316.667 173.81 325.195 173.81 335.714C173.81 346.234 182.338 354.762 192.857 354.762H307.143C317.662 354.762 326.19 346.234 326.19 335.714C326.19 325.195 317.662 316.667 307.143 316.667H192.857Z"/>
<path fill-rule="evenodd" clip-rule="evenodd" d="M347.619 94.4641C347.619 97.5215 350.098 100 353.155 100H462.5C472.083 100 480.729 103.854 488.438 111.562C496.146 119.271 500 127.917 500 137.5V238.304C500 247.054 497.292 255.179 491.875 262.679C488.983 266.683 486.032 269.737 483.021 271.841C478.993 274.655 475.233 278.758 475.227 283.671L475 461.25C475 470.833 471.146 479.688 463.438 487.813C455.729 495.938 447.083 500 437.5 500H62.5C52.5 500 43.75 495.938 36.25 487.813C28.75 479.688 25 470.833 25 461.25L23.8607 282.934C23.8309 278.269 20.4218 274.335 16.6427 271.602C13.7483 269.508 10.909 266.533 8.125 262.679C2.70813 255.179 0 247.054 0 238.304V137.5C0 127.917 3.75 119.271 11.25 111.562C18.75 103.854 27.5 100 37.5 100H146.845C149.902 100 152.381 97.5215 152.381 94.4641C152.381 67.8741 161.781 45.4826 180.582 27.2897C199.383 9.09653 222.522 0 250.001 0C277.478 0 300.618 9.09653 319.418 27.2897C338.219 45.4826 347.619 67.8741 347.619 94.4641ZM49.5239 123.333C36.3745 123.333 25.7141 133.993 25.7141 147.143V226.667C25.7141 239.816 36.3745 250.476 49.5239 250.476H450.476C463.625 250.476 474.286 239.816 474.286 226.667V147.143C474.286 133.993 463.625 123.333 450.476 123.333H49.5239ZM319.048 96.0458C319.048 98.2297 317.278 100 315.094 100H184.906C182.722 100 180.952 98.2297 180.952 96.0458C180.952 77.0531 187.601 61.0591 200.9 48.0641C214.197 35.069 230.565 28.5715 250 28.5715C269.435 28.5715 285.803 35.069 299.101 48.0641C312.399 61.0591 319.048 77.0531 319.048 96.0458ZM49.5239 298.952C49.5239 285.803 60.1837 275.143 73.3331 275.143H426.667C439.816 275.143 450.476 285.803 450.476 298.952V448.75C450.476 461.9 439.816 472.56 426.667 472.56H73.3331C60.1837 472.56 49.5239 461.9 49.5239 448.75V298.952Z"/>
</svg>
