<svg width="500" height="500" viewBox="0 0 500 500" fill="currentColor" xmlns="http://www.w3.org/2000/svg">
<path d="M429.056 325.725C437.326 323.154 445.725 329.315 445.725 337.952V415.208C445.724 420.81 442.073 425.761 436.711 427.433L407.066 436.669C398.795 439.246 390.389 433.085 390.389 424.444V347.166C390.389 341.561 394.044 336.607 399.411 334.938L429.056 325.725Z"/>
<path d="M299.589 147.616C306.683 147.616 312.434 153.35 312.435 160.423L312.436 193.675C312.436 195.302 312.125 196.915 311.52 198.426L298.964 229.772C295.252 239.039 282.808 240.703 276.779 232.738L259.69 210.159C258.009 207.937 257.099 205.228 257.099 202.444V160.424C257.099 153.351 262.85 147.616 269.944 147.616H299.589Z"/>
<path fill-rule="evenodd" clip-rule="evenodd" d="M394.33 100C397.96 100 401.42 101.532 403.855 104.216L496.681 206.533C498.817 208.888 500 211.95 500 215.125V440.54C500 446.142 496.349 451.095 490.986 452.766L341.257 499.417C340.017 499.803 338.724 500 337.425 500H12.8457C5.75129 500 0.00013384 494.266 0 487.192V262.392C4.00757e-05 260.844 0.281146 259.309 0.830078 257.861L57.5596 108.278C59.4489 103.297 64.2334 100 69.5752 100H146.464C149.521 100 152 97.5214 152 94.4639C152 67.8741 161.4 45.4828 180.201 27.29C199.002 9.09683 222.141 0 249.62 0C277.097 0.000107777 300.237 9.09694 319.037 27.29C337.838 45.4829 347.238 67.874 347.238 94.4639C347.238 97.5214 349.717 100 352.774 100H394.33ZM314.713 100C316.897 100 318.667 98.2297 318.667 96.0459C318.667 77.0532 312.017 61.0594 298.72 48.0645C285.421 35.0693 269.055 28.5713 249.619 28.5713C230.184 28.5713 213.816 35.0693 200.519 48.0645C187.22 61.0594 180.571 77.0532 180.571 96.0459C180.571 98.2297 182.342 100 184.525 100H314.713ZM32.6084 283.251C28.7885 283.251 25.6916 286.339 25.6914 290.147V467.487C25.6914 471.296 28.7884 474.384 32.6084 474.384H309.288C313.108 474.384 316.205 471.296 316.205 467.487V290.147C316.205 286.339 313.108 283.251 309.288 283.251H32.6084ZM478.261 249.361C478.261 244.709 473.735 241.392 469.281 242.779L346.751 280.957C343.864 281.857 341.898 284.522 341.897 287.538V463.939C341.898 468.592 346.423 471.909 350.877 470.521L473.407 432.344C476.295 431.444 478.261 428.778 478.261 425.762V249.361ZM83.8096 125.616C80.9657 125.616 78.411 127.351 77.3711 129.99L30.7881 248.217C29.0054 252.741 32.3513 257.636 37.2266 257.636H312.436C315.279 257.636 317.834 255.9 318.874 253.261L365.457 135.034C367.24 130.51 363.894 125.616 359.019 125.616H83.8096ZM401.813 135.995C398.334 132.315 392.197 133.497 390.342 138.204L349.234 242.532C347.111 247.922 352.191 253.363 357.734 251.637L465.671 218.005C470.548 216.485 472.146 210.4 468.642 206.692L401.813 135.995Z"/>
<path d="M99 343C99 337.477 103.477 333 109 333H149C154.523 333 159 337.477 159 343V413C159 418.523 154.523 423 149 423H109C103.477 423 99 418.523 99 413V343Z"/>
<path d="M228.738 423H188.767C183.233 423 178.751 418.505 178.767 412.971L178.971 342.971C178.987 337.459 183.459 333 188.971 333H229C234.523 333 239 337.477 239 343V413C239 418.523 234.261 423 228.738 423Z"/>
</svg>
