<svg width="500" height="500" viewBox="0 0 500 500" fill="currentColor" xmlns="http://www.w3.org/2000/svg">
<path fill-rule="evenodd" clip-rule="evenodd" d="M394.329 100C397.959 100 401.42 101.532 403.855 104.216L496.681 206.533C498.817 208.888 500 211.95 500 215.125V440.54C500 446.142 496.349 451.095 490.986 452.766L341.257 499.417C340.017 499.803 338.724 500 337.425 500H12.8457C5.7513 500 0.000141479 494.266 0 487.192V262.392C4.00757e-05 260.844 0.281146 259.309 0.830078 257.861L57.5596 108.278C59.4489 103.297 64.2334 100 69.5752 100H146.464C149.521 100 152 97.5214 152 94.4639C152 67.8741 161.4 45.4828 180.201 27.29C199.002 9.09683 222.141 0 249.62 0C277.097 0.000107777 300.237 9.09694 319.037 27.29C337.838 45.4829 347.238 67.874 347.238 94.4639C347.238 97.5214 349.717 100 352.774 100H394.329ZM314.713 100C316.897 100 318.667 98.2297 318.667 96.0459C318.667 77.0532 312.017 61.0594 298.72 48.0645C285.421 35.0693 269.055 28.5713 249.619 28.5713C230.184 28.5713 213.816 35.0693 200.519 48.0645C187.22 61.0594 180.571 77.0532 180.571 96.0459C180.571 98.2297 182.342 100 184.525 100H314.713ZM379.786 119.704C374.786 119.704 370.295 122.756 368.467 127.396L318.874 253.261C317.834 255.9 315.279 257.636 312.436 257.636H32.6084C25.514 257.636 19.7627 263.37 19.7627 270.443C19.7627 277.517 25.514 283.251 32.6084 283.251H309.288C313.108 283.251 316.205 286.339 316.205 290.147V467.487C316.205 474.561 321.957 480.296 329.052 480.296C336.146 480.296 341.897 474.561 341.897 467.487V287.538C341.898 284.522 343.864 281.857 346.751 280.957L475.632 240.8C480.717 239.215 484.219 234.569 484.329 229.258C484.503 220.815 476.322 214.687 468.237 217.206L357.734 251.637C352.191 253.363 347.111 247.922 349.234 242.532L391.105 136.264C394.24 128.309 388.358 119.704 379.786 119.704ZM445.725 337.952C445.725 329.315 437.326 323.154 429.056 325.725L399.411 334.938C394.044 336.607 390.389 341.561 390.389 347.166V424.444C390.389 433.085 398.795 439.246 407.066 436.669L436.711 427.433C442.073 425.761 445.724 420.81 445.725 415.208V337.952ZM312.435 160.423C312.434 153.35 306.683 147.616 299.589 147.616H269.944C262.85 147.616 257.099 153.351 257.099 160.424V202.444C257.099 205.228 258.009 207.937 259.69 210.159L276.779 232.738C282.808 240.703 295.252 239.039 298.964 229.772L311.52 198.426C312.125 196.915 312.436 195.302 312.436 193.675L312.435 160.423ZM99 343C99 337.477 103.477 333 109 333H149C154.523 333 159 337.477 159 343V413C159 418.523 154.523 423 149 423H109C103.477 423 99 418.523 99 413V343ZM239 413C239 418.523 234.261 423 228.738 423H188.767C183.233 423 178.751 418.505 178.767 412.971L178.971 342.971C178.987 337.459 183.459 333 188.971 333H229C234.523 333 239 337.477 239 343V413Z"/>
</svg>
