<svg width="500" height="500" viewBox="0 0 500 500" fill="currentColor" xmlns="http://www.w3.org/2000/svg">
<path fill-rule="evenodd" clip-rule="evenodd" d="M37.5 500C27.5 500 18.75 496.25 11.25 488.75C3.75 481.25 0 472.5 0 462.5V137.5C0 127.5 3.75 118.75 11.25 111.25C18.75 103.75 27.5 100 37.5 100H140C145.523 100 150 95.5229 150 90V37.5C150 27.5 153.75 18.75 161.25 11.25C168.75 3.75 177.5 0 187.5 0H312.5C322.5 0 331.25 3.75 338.75 11.25C346.25 18.75 350 27.5 350 37.5V90C350 95.5229 354.477 100 360 100H462.5C472.5 100 481.25 103.75 488.75 111.25C496.25 118.75 500 127.5 500 137.5V462.5C500 472.5 496.25 481.25 488.75 488.75C481.25 496.25 472.5 500 462.5 500H37.5ZM312.5 90C312.5 95.5229 308.023 100 302.5 100H197.5C191.977 100 187.5 95.5229 187.5 90V51.25C187.5 46.25 189.422 41.875 193.265 38.125C197.109 34.375 201.594 32.5 206.719 32.5H293.281C298.406 32.5 302.891 34.375 306.735 38.125C310.578 41.875 312.5 46.25 312.5 51.25V90ZM320.4 206.634C319.008 207.724 318.149 209.124 317.821 210.836L315.447 225.222C314.912 228.461 312.792 231.18 309.959 232.839C306.349 234.952 302.968 237.445 299.818 240.316L186.57 341.564C182.271 345.412 177.316 348.355 171.704 350.393C166.092 352.43 160.301 353.449 154.331 353.449C139.047 353.449 126.092 348.185 115.465 337.658C104.838 327.132 99.525 314.511 99.525 299.796C99.525 284.854 104.779 271.95 115.286 261.084C125.794 250.217 138.809 244.784 154.331 244.784C160.301 244.784 166.152 245.689 171.883 247.5C177.615 249.312 182.51 252.141 186.57 255.99L211.853 278.494C215.734 281.948 221.613 281.855 225.383 278.281L225.721 277.96C229.97 273.93 229.863 267.128 225.489 263.234L200.182 240.709C194.212 235.049 187.167 230.918 179.048 228.314C170.928 225.711 162.689 224.409 154.331 224.409C137.357 224.409 122.505 229.034 109.776 238.283C106.66 240.546 102.592 241.209 99.0663 239.66L89.3314 235.382C87.5302 234.604 85.7289 234.487 83.9276 235.032C82.1263 235.576 80.7344 236.705 79.7519 238.417L63.5403 265.732C62.5578 267.288 62.3122 268.922 62.8035 270.634C63.2947 272.346 64.2772 273.747 65.751 274.837L74.0775 280.542C77.3833 282.807 78.9588 286.822 78.5186 290.805C78.1945 293.738 78.0324 296.735 78.0324 299.796C78.0324 302.484 78.1603 305.121 78.416 307.707C78.8093 311.685 77.2034 315.675 73.8885 317.91L65.751 323.396C64.1135 324.486 63.09 325.925 62.6806 327.715C62.2712 329.505 62.5578 331.178 63.5403 332.735L79.7519 359.816C80.7344 361.528 82.1263 362.656 83.9276 363.201C85.7289 363.746 87.5301 363.629 89.3314 362.851L98.789 358.695C102.294 357.154 106.338 357.8 109.448 360.033C114.708 363.811 120.333 366.812 126.323 369.038C129.977 370.395 132.818 373.459 133.458 377.304L135.018 386.664C135.346 388.376 136.206 389.776 137.598 390.866C138.989 391.955 140.586 392.5 142.387 392.5H174.81C176.612 392.5 178.208 391.955 179.6 390.866C180.992 389.776 181.852 388.376 182.179 386.664L184.553 372.278C185.088 369.039 187.208 366.32 190.041 364.661C193.652 362.548 197.032 360.055 200.182 357.184L313.43 255.937C317.729 252.088 322.684 249.145 328.296 247.108C333.908 245.07 339.699 244.051 345.669 244.051C360.953 244.051 373.908 249.315 384.535 259.842C395.162 270.369 400.475 282.99 400.475 297.705C400.475 312.646 395.221 325.55 384.714 336.416C374.206 347.283 361.192 352.716 345.669 352.716C339.699 352.716 333.848 351.811 328.117 350C322.386 348.188 317.49 345.359 313.43 341.51L288.148 319.006C284.267 315.552 278.388 315.645 274.618 319.22L274.28 319.541C270.03 323.57 270.138 330.373 274.512 334.266L299.818 356.791C305.789 362.451 312.833 366.582 320.953 369.186C329.072 371.789 337.311 373.091 345.669 373.091C362.644 373.091 377.495 368.466 390.224 359.217C393.34 356.954 397.408 356.291 400.934 357.84L410.669 362.118C412.47 362.896 414.271 363.013 416.072 362.468C417.874 361.924 419.266 360.795 420.248 359.083L436.46 331.768C437.442 330.212 437.688 328.578 437.197 326.866C436.705 325.154 435.723 323.753 434.249 322.664L425.922 316.958C422.617 314.693 421.041 310.678 421.481 306.695C421.806 303.762 421.968 300.765 421.968 297.705C421.968 295.016 421.84 292.379 421.584 289.793C421.191 285.815 422.797 281.825 426.111 279.59L434.249 274.104C435.887 273.015 436.91 271.575 437.319 269.785C437.729 267.995 437.442 266.322 436.46 264.766L420.248 237.684C419.266 235.972 417.874 234.844 416.072 234.299C414.271 233.754 412.47 233.871 410.669 234.649L401.211 238.805C397.706 240.346 393.662 239.7 390.552 237.467C385.292 233.689 379.667 230.688 373.678 228.462C370.023 227.105 367.183 224.041 366.542 220.196L364.982 210.836C364.654 209.124 363.795 207.724 362.403 206.634C361.011 205.545 359.414 205 357.613 205H325.19C323.389 205 321.792 205.545 320.4 206.634Z"/>
</svg>
