<svg width="500" height="500" viewBox="0 0 500 500" fill="currentColor" xmlns="http://www.w3.org/2000/svg">
<path fill-rule="evenodd" clip-rule="evenodd" d="M488.75 111.25C496.25 118.75 500 127.5 500 137.5V317.5C500 323.023 495.523 327.5 490 327.5H317.5C311.977 327.5 307.5 323.023 307.5 317.5V307.5C307.5 304.062 306.276 301.12 303.828 298.672C301.38 296.224 298.438 295 295 295H207.5C204.062 295 201.12 296.224 198.672 298.672C196.224 301.12 195 304.062 195 307.5V317.5C195 323.023 190.523 327.5 185 327.5H10C4.47715 327.5 0 323.023 0 317.5V137.5C0 127.5 3.75 118.75 11.25 111.25C18.75 103.75 27.5 100 37.5 100H140C145.523 100 150 95.5229 150 90V37.5C150 27.5 153.75 18.75 161.25 11.25C168.75 3.75 177.5 0 187.5 0H312.5C322.5 0 331.25 3.75 338.75 11.25C346.25 18.75 350 27.5 350 37.5V90C350 95.5229 354.477 100 360 100H462.5C472.5 100 481.25 103.75 488.75 111.25ZM187.5 90C187.5 95.5229 191.977 100 197.5 100H302.5C308.023 100 312.5 95.5229 312.5 90V51.25C312.5 46.25 310.578 41.875 306.735 38.125C302.891 34.375 298.406 32.5 293.281 32.5H206.719C201.594 32.5 197.109 34.375 193.265 38.125C189.422 41.875 187.5 46.25 187.5 51.25V90Z"/>
<path d="M55 500C45 500 36.25 496.25 28.75 488.75C21.25 481.25 17.5 472.5 17.5 462.5V385C17.5 379.477 21.9772 375 27.5 375H185C190.523 375 195 379.477 195 385V395C195 398.438 196.224 401.38 198.672 403.828C201.12 406.276 204.062 407.5 207.5 407.5H295C298.438 407.5 301.38 406.276 303.828 403.828C306.276 401.38 307.5 398.438 307.5 395V385C307.5 379.477 311.977 375 317.5 375H472.5C478.023 375 482.5 379.477 482.5 385V462.5C482.5 472.5 478.75 481.25 471.25 488.75C463.75 496.25 455 500 445 500H55Z"/>
<path fill-rule="evenodd" clip-rule="evenodd" d="M232.5 376.25H270C271.771 376.25 273.255 375.651 274.453 374.453C275.651 373.255 276.25 371.771 276.25 370V332.5C276.25 330.729 275.651 329.245 274.453 328.047C273.255 326.849 271.771 326.25 270 326.25H232.5C230.729 326.25 229.245 326.849 228.047 328.047C226.849 329.245 226.25 330.729 226.25 332.5V370C226.25 371.771 226.849 373.255 228.047 374.453C229.245 375.651 230.729 376.25 232.5 376.25Z"/>
</svg>
