<svg width="500" height="500" viewBox="0 0 500 500" fill="currentColor" xmlns="http://www.w3.org/2000/svg">
<path fill-rule="evenodd" clip-rule="evenodd" d="M500 137.5C500 127.5 496.25 118.75 488.75 111.25C481.25 103.75 472.5 100 462.5 100H360C354.477 100 350 95.5229 350 90V37.5C350 27.5 346.25 18.75 338.75 11.25C331.25 3.75 322.5 0 312.5 0H187.5C177.5 0 168.75 3.75 161.25 11.25C153.75 18.75 150 27.5 150 37.5V90C150 95.5229 145.523 100 140 100H37.5C27.5 100 18.75 103.75 11.25 111.25C3.75 118.75 0 127.5 0 137.5V317.5C0 323.023 4.47715 327.5 10 327.5H185C190.523 327.5 195 323.023 195 317.5V307.5C195 304.062 196.224 301.12 198.672 298.672C201.12 296.224 204.062 295 207.5 295H295C298.438 295 301.38 296.224 303.828 298.672C306.276 301.12 307.5 304.062 307.5 307.5V317.5C307.5 323.023 311.977 327.5 317.5 327.5H490C495.523 327.5 500 323.023 500 317.5V137.5ZM197.5 100C191.977 100 187.5 95.5229 187.5 90V51.25C187.5 46.25 189.422 41.875 193.265 38.125C197.109 34.375 201.594 32.5 206.719 32.5H293.281C298.406 32.5 302.891 34.375 306.735 38.125C310.578 41.875 312.5 46.25 312.5 51.25V90C312.5 95.5229 308.023 100 302.5 100H197.5ZM28.75 488.75C36.25 496.25 45 500 55 500H445C455 500 463.75 496.25 471.25 488.75C478.75 481.25 482.5 472.5 482.5 462.5V385C482.5 379.477 478.023 375 472.5 375H317.5C311.977 375 307.5 379.477 307.5 385V395C307.5 398.438 306.276 401.38 303.828 403.828C301.38 406.276 298.438 407.5 295 407.5H207.5C204.062 407.5 201.12 406.276 198.672 403.828C196.224 401.38 195 398.438 195 395V385C195 379.477 190.523 375 185 375H27.5C21.9772 375 17.5 379.477 17.5 385V462.5C17.5 472.5 21.25 481.25 28.75 488.75ZM232.5 376.25H270C271.771 376.25 273.255 375.651 274.453 374.453C275.651 373.255 276.25 371.771 276.25 370V332.5C276.25 330.729 275.651 329.245 274.453 328.047C273.255 326.849 271.771 326.25 270 326.25H232.5C230.729 326.25 229.245 326.849 228.047 328.047C226.849 329.245 226.25 330.729 226.25 332.5V370C226.25 371.771 226.849 373.255 228.047 374.453C229.245 375.651 230.729 376.25 232.5 376.25ZM464.179 135.821C458.428 130.07 452.174 127.5 445 127.5H55C47.8255 127.5 41.5722 130.07 35.8213 135.821C30.0704 141.572 27.5 147.826 27.5 155V300H167.5V290C167.5 283.89 169.792 278.409 174.102 274.101C178.41 269.793 183.889 267.5 190 267.5H312.5C318.611 267.5 324.09 269.793 328.398 274.101C332.708 278.409 335 283.89 335 290V300H472.5V155C472.5 147.826 469.93 141.572 464.179 135.821Z"/>
</svg>
