<svg width="500" height="500" viewBox="0 0 500 500" fill="currentColor" xmlns="http://www.w3.org/2000/svg">
<path d="M110.5 425C131.211 425 148 441.789 148 462.5C148 483.21 131.211 500 110.5 500C89.7894 500 73.0001 483.21 73 462.5C73 441.789 89.7893 425 110.5 425Z"/>
<path d="M297.5 425C318.211 425 335 441.789 335 462.5C335 483.21 318.211 500 297.5 500C276.789 500 260 483.21 260 462.5C260 441.789 276.789 425 297.5 425Z"/>
<path d="M434.06 1.99886C451.066 -3.7076 500 2.22255 500 27.3494C500 42.024 487.201 46.6502 475 46.6502C420.33 46.6502 450 268.388 450 305.36C450 337.856 449.004 397.496 429 417.5C404 442.5 366.5 438 340 417.5C313.5 397 283.93 402.496 283.93 402.496C249.305 407.397 225.367 426.673 190.5 424C163.892 421.96 142 403.513 110.951 399.598C98.5 398.029 86.2695 401.449 74.3848 408.474C57 418.751 25 416 25 394.252C25.0014 332.496 308.041 366.65 352.5 366.65C364.926 366.65 375 356.576 375 344.15C375 293.602 136.939 321.65 100 321.65C44.7718 321.65 0.000397388 276.878 0 221.65C0 178.27 26.5669 138.736 68.1875 124.769L434.06 1.99886Z"/>
</svg>
