<svg width="500" height="500" viewBox="0 0 500 500" fill="currentColor" xmlns="http://www.w3.org/2000/svg">
<path d="M149.789 293.19C224.314 242.324 275.391 242.257 350.181 293.193C365.574 305.055 370.123 327.066 358.339 342.663C331.756 377.847 293.073 400 250.009 400C206.933 400 168.24 377.835 141.657 342.635C129.887 327.048 134.42 305.058 149.789 293.19Z"/>
<path d="M250.5 100C285.018 100 313 127.982 313 162.5C313 197.018 285.018 225 250.5 225C215.982 225 188 197.018 188 162.5C188 127.982 215.982 100 250.5 100Z"/>
<path fill-rule="evenodd" clip-rule="evenodd" d="M250 0C388.071 0 500 111.929 500 250C500 388.071 388.071 500 250 500C111.929 500 0 388.071 0 250C0 111.929 111.929 0 250 0ZM250 50C139.543 50 50 139.543 50 250C50 360.457 139.543 450 250 450C360.457 450 450 360.457 450 250C450 139.543 360.457 50 250 50Z"/>
</svg>
