<svg width="500" height="500" viewBox="0 0 500 500" fill="currentColor" xmlns="http://www.w3.org/2000/svg">
<path d="M200 0C310.457 0 400 89.5431 400 200C400 238.628 389.047 274.697 370.08 305.274C367.55 309.352 368.031 314.663 371.424 318.056L488.947 435.579C503.684 450.316 503.684 474.21 488.947 488.947C474.21 503.684 450.316 503.684 435.579 488.947L318.056 371.424C314.663 368.031 309.352 367.55 305.274 370.08C274.697 389.047 238.628 400 200 400C89.5431 400 0 310.457 0 200C0 89.5431 89.5431 0 200 0ZM200 50C117.157 50 50 117.157 50 200C50 282.843 117.157 350 200 350C282.843 350 350 282.843 350 200C350 117.157 282.843 50 200 50Z"/>
</svg>
