<svg width="500" height="500" viewBox="0 0 500 500" fill="currentColor" xmlns="http://www.w3.org/2000/svg">
<path d="M51.5267 6.45508C55.8811 2.15169 61.2217 0 67.5485 0H434.015C440.342 0 445.682 2.15169 450.037 6.45508C454.388 10.7617 456.563 16.0438 456.563 22.3012C456.563 28.5586 454.388 33.8406 450.037 38.1473C445.682 42.4507 440.342 44.6023 434.015 44.6023H67.5485C61.2217 44.6023 55.8811 42.4507 51.5267 38.1473C47.1756 33.8406 45 28.5586 45 22.3012C45 16.0438 47.1756 10.7617 51.5267 6.45508Z"/>
<path fill-rule="evenodd" clip-rule="evenodd" d="M26.5267 493.545C22.1756 489.238 20 483.956 20 477.699L19.7383 272.017C19.7348 269.325 18.6174 266.774 16.8187 264.772C10.7356 258 6.05931 249.871 2.78967 240.386C-0.984121 229.442 -0.929101 217.651 2.95474 205.013L20.8585 99.7629C23.6808 90.6752 28.7573 83.1223 36.088 77.1044C43.4187 71.0896 51.879 68.0823 61.4689 68.0823H438.531C448.121 68.0823 456.581 71.0896 463.912 77.1044C471.243 83.1223 476.319 90.6752 479.142 99.7629L497.045 205.013C500.929 217.651 500.984 229.442 497.21 240.386C493.941 249.871 489.264 258 483.181 264.772C481.383 266.774 480.265 269.325 480.262 272.017L480 470C480 478.418 477.246 485.523 472.025 491.317C466.799 497.106 460.391 500 452.799 500C445.206 500 438.798 497.106 433.572 491.317C428.351 485.523 424.857 478.418 424.857 470V328.618C424.857 321.714 419.26 316.118 412.357 316.118H335C328.096 316.118 322.5 321.714 322.5 328.618V477.987C322.5 484.244 320.037 489.238 315.686 493.545C311.331 497.848 305.991 500 299.664 500H42.5485C36.2217 500 30.8811 497.848 26.5267 493.545ZM279.185 445C279.185 451.904 273.589 457.5 266.685 457.5H76.6852C69.7816 457.5 64.1852 451.904 64.1852 445V331.25C64.1852 324.346 69.7816 316.118 76.6852 316.118H266.685C273.589 316.118 279.185 324.346 279.185 331.25V445ZM68.9627 240C75.3523 240 80.9226 237.628 85.6735 232.884C90.4207 228.14 93.3118 222.25 94.3467 215.214L105.291 111.045C105.911 105.141 101.282 100 95.3453 100H73.7796C69.0537 100 64.973 103.308 63.9957 107.932L43.5787 204.529C41.4188 211.834 42.5025 219.574 46.8297 227.746C51.1607 235.916 58.5384 240 68.9627 240ZM185.189 240C193.277 240 199.905 237.245 205.072 231.736C210.239 226.223 212.823 219.67 212.823 212.077V110C212.823 104.477 208.346 100 202.823 100H180.973C175.887 100 171.611 103.818 171.037 108.872L159.805 207.803C158.485 216.26 160.319 223.741 165.306 230.247C170.297 236.749 176.924 240 185.189 240ZM294.928 231.736C300.095 237.245 306.723 240 314.811 240C323.076 240 329.703 236.749 334.694 230.247C339.681 223.741 341.515 216.26 340.195 207.803L328.963 108.872C328.389 103.818 324.113 100 319.027 100H297.177C291.654 100 287.177 104.477 287.177 110V212.077C287.177 219.67 289.761 226.223 294.928 231.736ZM414.326 232.884C419.077 237.628 424.648 240 431.037 240C441.462 240 448.839 235.916 453.17 227.746C457.497 219.574 458.581 211.834 456.421 204.529L436.004 107.932C435.027 103.308 430.946 100 426.22 100H404.655C398.718 100 394.089 105.141 394.709 111.045L405.653 215.214C406.688 222.25 409.579 228.14 414.326 232.884Z"/>
</svg>
