<svg width="910" height="910" xmlns="http://www.w3.org/2000/svg" xmlns:xlink="http://www.w3.org/1999/xlink" xml:space="preserve" overflow="hidden"><defs><clipPath id="clip0"><rect x="301" y="112" width="910" height="910"/></clipPath></defs><g clip-path="url(#clip0)" transform="translate(-301 -112)"><path d="M1031.81 654.961C1023.07 673.082 997.439 680.938 1002.9 666.301 1072.94 478.439 1085.74 399.114 1024.47 340.232 919.079 243.43 878.754 198.94 920.779 178.285 942.055 168.432 958.981 166.044 986.811 169.918 1002.27 172.07 1018.15 187.836 995.079 189.668 923.327 195.363 983.309 223.199 1068.36 298.363 1157.12 376.797 1154.15 401.249 1031.81 654.961Z" fill="#1AF1FA"/><path d="M1021.87 387.113C1037.5 404.849 1032.61 433.041 1019.14 420.219 846.216 255.642 751.024 281.32 652.426 307.837 487.836 355.82 308.094 433.876 308.981 364.447 309.303 339.296 315.661 322.154 334.845 298.073 345.503 284.696 371.624 278.088 361.365 300.705 324.481 394.63 509.11 292.311 633.53 240.52 759.005 188.29 812.618 149.57 1021.87 387.113Z" fill="#1AF1FA"/><path d="M335.444 428.829C358.263 448.787 785.672 917.874 785.672 917.874 814.868 945.975 837.851 974.007 917.285 966.028 1028.05 954.898 1107.92 905.855 1147.64 834.054 1187.36 762.255 1120.02 658.091 1125.71 702.499 1127.68 717.938 1106.89 692.898 1093.34 670.891 1075.81 642.403 1063.02 578.792 1096.59 597.01 1148 624.929 1221.66 741.56 1209.71 826.823 1185.54 955.616 1005.67 1025.36 889.943 1021.88 847.251 1020.22 786.157 1015.23 734.018 955.393 734.018 955.393 343.389 521.76 307.354 454.719 295.914 433.434 296.979 395.187 335.444 428.829Z" fill="#1AF1FA"/><path d="M719.555 604.164C719.555 583.666 736.28 567.046 756.908 567.046 777.542 567.046 794.266 583.666 794.266 604.164 794.266 624.663 777.542 641.287 756.908 641.287 736.28 641.287 719.555 624.663 719.555 604.164Z" fill="#1AF1FA"/><path d="M756.908 662.091C786.771 662.091 812.389 680.311 823.333 706.281L823.582 707.089 810.331 718.064C795.081 728.401 776.695 734.44 756.908 734.44 737.125 734.44 718.739 728.401 703.497 718.064L690.234 707.089 690.487 706.281C701.427 680.311 727.047 662.091 756.908 662.091Z" fill="#1AF1FA"/><path d="M682.197 492.806C702.829 492.806 719.555 509.53 719.555 530.163 719.555 550.795 702.829 567.519 682.197 567.519 661.566 567.519 644.84 550.795 644.84 530.163 644.84 509.53 661.566 492.806 682.197 492.806Z" fill="#1AF1FA"/><path d="M624.034 530.398C624.034 560.151 605.934 585.681 580.141 596.586L579.334 596.835 568.425 583.624C558.155 568.431 552.16 550.116 552.16 530.398 552.16 510.678 558.155 492.365 568.425 477.172L579.334 463.963 580.141 464.212C605.934 475.116 624.034 500.646 624.034 530.398Z" fill="#1AF1FA"/><path d="M831.384 567.046C810.886 567.046 794.266 550.32 794.266 529.688 794.266 509.059 810.886 492.335 831.384 492.335 851.883 492.335 868.507 509.059 868.507 529.688 868.507 550.32 851.883 567.046 831.384 567.046Z" fill="#1AF1FA"/><path d="M889.311 529.688C889.311 499.827 907.531 474.207 933.501 463.267L934.309 463.014 945.284 476.269C955.623 491.519 961.66 509.899 961.66 529.688 961.66 549.475 955.623 567.861 945.284 583.105L934.309 596.362 933.501 596.113C907.531 585.169 889.311 559.551 889.311 529.688Z" fill="#1AF1FA"/><path d="M794.739 454.977C794.739 475.609 778.015 492.335 757.381 492.335 736.75 492.335 720.026 475.609 720.026 454.977 720.026 434.346 736.75 417.62 757.381 417.62 778.015 417.62 794.739 434.346 794.739 454.977Z" fill="#1AF1FA"/><path d="M757.147 396.814C727.393 396.814 701.864 378.714 690.959 352.917L690.709 352.114 703.921 341.205C719.114 330.935 737.429 324.94 757.147 324.94 776.866 324.94 795.179 330.935 810.373 341.205L823.582 352.114 823.333 352.917C812.429 378.714 786.898 396.814 757.147 396.814Z" fill="#1AF1FA"/><path d="M889.695 187.767C877.29 211.862 869.157 216.003 859.791 213.895 849.763 212.275 821.333 188.754 813.745 169.378 809.399 158.284 863.305 111.356 875.088 112.007 890.183 114.194 936.812 158.983 923.717 163.489 903.631 167.272 895.68 176.144 889.695 187.767Z" fill="#A1FAA1"/><path d="M935.225 861.534C942.974 847.071 1066.45 696.544 1078.14 696.58 1089.83 696.615 1105.61 713.517 1105.61 713.517 1120.6 734.466 982.845 903.449 960.592 892.409 960.592 892.409 927.475 875.998 935.225 861.534Z" fill="#A1FAA1"/><path d="M807.99 861.638C765.409 869.069 750.99 822.694 772.593 796.182 812.833 746.805 911.12 791.029 853.377 792.101 795.634 793.173 766.132 853.943 878.628 825.851 901.489 820.142 926.605 839.116 907.402 864.266 847.966 942.115 788.676 937.157 841.043 896.049 904.245 841.037 828.554 858.051 807.99 861.638Z" fill="#A1FAA1"/><path d="M783.305 609.539C768.745 594.977 768.745 571.377 783.305 556.817 797.86 542.263 821.465 542.263 836.022 556.817 850.582 571.377 850.582 594.977 836.022 609.539 821.465 624.095 797.86 624.095 783.305 609.539Z" fill="#A1FAA1"/><path d="M850.735 624.248C871.807 603.178 902.703 597.905 928.685 608.445L929.435 608.838 927.799 625.912C924.308 643.942 915.578 661.163 901.611 675.128 887.646 689.097 870.431 697.82 852.394 701.316L835.319 702.952 834.928 702.204C824.388 676.22 829.659 645.324 850.735 624.248Z" fill="#A1FAA1"/><path d="M678.346 557.299C692.901 542.739 716.506 542.739 731.062 557.299 745.622 571.859 745.622 595.459 731.062 610.021 716.506 624.576 692.901 624.576 678.346 610.021 663.79 595.459 663.79 571.859 678.346 557.299Z" fill="#A1FAA1"/><path d="M663.633 624.73C684.707 645.806 689.976 676.702 679.44 702.687L679.047 703.429 661.973 701.793C643.937 698.302 626.722 689.575 612.757 675.61 598.788 661.644 590.06 644.425 586.569 626.394L584.933 609.313 585.681 608.922C611.665 598.388 642.561 603.653 663.633 624.73Z" fill="#A1FAA1"/><path d="M836.022 504.103C821.465 518.657 797.86 518.657 783.305 504.103 768.745 489.543 768.745 465.943 783.305 451.383 797.86 436.825 821.465 436.825 836.022 451.383 850.582 465.943 850.582 489.543 836.022 504.103Z" fill="#A1FAA1"/><path d="M850.735 436.672C829.659 415.596 824.388 384.7 834.928 358.717L835.319 357.968 852.394 359.604C870.431 363.1 887.646 371.827 901.611 385.792 915.578 399.757 924.308 416.977 927.799 435.008L929.435 452.083 928.685 452.475C902.703 463.014 871.807 457.744 850.735 436.672Z" fill="#A1FAA1"/><path d="M730.864 451.099C745.424 465.659 745.424 489.259 730.864 503.819 716.309 518.379 692.704 518.379 678.15 503.819 663.591 489.259 663.591 465.659 678.15 451.099 692.704 436.544 716.309 436.544 730.864 451.099Z" fill="#A1FAA1"/><path d="M663.435 436.388C642.363 457.465 611.467 462.73 585.482 452.196L584.734 451.805 586.371 434.728C589.861 416.693 598.59 399.476 612.559 385.508 626.523 371.543 643.739 362.816 661.775 359.327L678.848 357.689 679.242 358.433C689.781 384.416 684.509 415.312 663.435 436.388Z" fill="#A1FAA1"/></g></svg>