<svg viewBox="0 0 500 500" xmlns="http://www.w3.org/2000/svg">
<path d="M323.459 41.6302C316.643 54.8693 312.174 57.1447 307.028 55.9861C301.518 55.096 285.897 42.1723 281.728 31.5266C279.34 25.4307 308.959 -0.354071 315.433 0.00368672C323.727 1.20572 349.347 25.8151 342.152 28.2906C331.116 30.3695 326.747 35.2439 323.459 41.6302Z" fill="#A1FAA1"/>
<path d="M348.475 411.832C352.733 403.885 420.578 321.178 427 321.198C433.423 321.217 442.092 330.504 442.092 330.504C450.332 342.014 374.64 434.862 362.413 428.796C362.413 428.796 344.217 419.779 348.475 411.832Z" fill="#A1FAA1"/>
<path d="M401.545 298.33C396.744 308.287 382.659 312.603 385.657 304.561C424.141 201.34 431.175 157.755 397.513 125.402C339.604 72.2143 317.447 47.7694 340.538 36.4202C352.228 31.0064 361.528 29.6943 376.819 31.8229C385.314 33.0055 394.039 41.6684 381.362 42.6746C341.938 45.8038 374.895 61.0983 421.627 102.397C470.395 145.493 468.763 158.928 401.545 298.33Z" fill="#1AF1FA"/>
<path fill-rule="evenodd" clip-rule="evenodd" d="M278.566 411.889C255.17 415.972 247.247 390.491 259.117 375.924C281.227 348.794 335.231 373.093 303.504 373.682C271.777 374.271 255.567 407.661 317.378 392.226C329.939 389.089 343.739 399.514 333.188 413.333C300.531 456.107 267.954 453.383 296.727 430.796C331.453 400.57 289.865 409.918 278.566 411.889Z" fill="#A1FAA1"/>
<path d="M396.083 151.161C404.668 160.906 401.984 176.396 394.582 169.351C299.569 78.9244 247.266 93.0329 193.091 107.603C102.657 133.967 3.89758 176.855 4.38539 138.707C4.56214 124.888 8.05525 115.469 18.5962 102.238C24.4523 94.8878 38.8046 91.2573 33.1673 103.684C12.9014 155.291 114.346 99.072 182.709 70.6154C251.651 41.9178 281.109 20.6429 396.083 151.161Z" fill="#1AF1FA"/>
<path d="M18.9254 174.082C31.4634 185.048 266.303 442.788 266.303 442.788C282.345 458.228 294.973 473.63 338.618 469.246C399.479 463.131 443.365 436.184 465.189 396.733C487.013 357.283 450.011 300.05 453.136 324.45C454.222 332.933 442.794 319.175 435.351 307.083C425.718 291.43 418.695 256.479 437.135 266.489C465.386 281.829 505.859 345.912 499.291 392.76C486.011 463.525 387.181 501.844 323.595 499.932C300.138 499.021 266.57 496.28 237.922 463.403C237.922 463.403 23.2909 225.143 3.49101 188.307C-2.79472 176.612 -2.20938 155.597 18.9254 174.082Z" fill="#1AF1FA"/>
<path d="M229.975 270.42C229.975 259.157 239.165 250.025 250.499 250.025C261.836 250.025 271.025 259.157 271.025 270.42C271.025 281.683 261.836 290.817 250.499 290.817C239.165 290.817 229.975 281.683 229.975 270.42Z" fill="#1AF1FA"/>
<path d="M250.499 302.248C266.907 302.248 280.983 312.259 286.996 326.528L287.133 326.972L279.852 333.002C271.473 338.682 261.371 342 250.499 342C239.629 342 229.527 338.682 221.152 333.002L213.865 326.972L214.004 326.528C220.015 312.259 234.092 302.248 250.499 302.248Z" fill="#1AF1FA"/>
<path d="M209.449 209.234C220.785 209.234 229.975 218.423 229.975 229.76C229.975 241.096 220.785 250.285 209.449 250.285C198.113 250.285 188.923 241.096 188.923 229.76C188.923 218.423 198.113 209.234 209.449 209.234Z" fill="#1AF1FA"/>
<path d="M177.491 229.889C177.491 246.237 167.546 260.264 153.374 266.256L152.931 266.393L146.937 259.134C141.294 250.786 138 240.723 138 229.889C138 219.055 141.294 208.992 146.937 200.644L152.931 193.386L153.374 193.523C167.546 199.514 177.491 213.542 177.491 229.889Z" fill="#1AF1FA"/>
<path d="M291.42 250.025C280.157 250.025 271.025 240.835 271.025 229.499C271.025 218.164 280.157 208.975 291.42 208.975C302.683 208.975 311.817 218.164 311.817 229.499C311.817 240.835 302.683 250.025 291.42 250.025Z" fill="#1AF1FA"/>
<path d="M323.248 229.499C323.248 213.092 333.259 199.015 347.528 193.004L347.972 192.865L354.002 200.148C359.683 208.527 363 218.626 363 229.499C363 240.371 359.683 250.473 354.002 258.849L347.972 266.133L347.528 265.996C333.259 259.983 323.248 245.907 323.248 229.499Z" fill="#1AF1FA"/>
<path d="M271.285 188.449C271.285 199.785 262.096 208.975 250.759 208.975C239.423 208.975 230.234 199.785 230.234 188.449C230.234 177.113 239.423 167.923 250.759 167.923C262.096 167.923 271.285 177.113 271.285 188.449Z" fill="#1AF1FA"/>
<path d="M250.63 156.491C234.282 156.491 220.255 146.546 214.263 132.372L214.126 131.931L221.385 125.937C229.733 120.294 239.796 117 250.63 117C261.465 117 271.527 120.294 279.875 125.937L287.133 131.931L286.996 132.372C281.005 146.546 266.977 156.491 250.63 156.491Z" fill="#1AF1FA"/>
<path d="M265.003 273.373C257.003 265.372 257.003 252.405 265.003 244.405C273 236.408 285.97 236.408 293.968 244.405C301.968 252.405 301.968 265.372 293.968 273.373C285.97 281.371 273 281.371 265.003 273.373Z" fill="#A1FAA1"/>
<path d="M302.052 281.455C313.63 269.878 330.606 266.981 344.882 272.772L345.294 272.988L344.395 282.369C342.477 292.276 337.68 301.738 330.006 309.411C322.333 317.086 312.874 321.879 302.964 323.8L293.582 324.699L293.367 324.288C287.576 310.011 290.472 293.035 302.052 281.455Z" fill="#A1FAA1"/>
<path d="M207.333 244.67C215.331 236.67 228.3 236.67 236.298 244.67C244.298 252.67 244.298 265.637 236.298 273.638C228.3 281.635 215.331 281.635 207.333 273.638C199.335 265.637 199.335 252.67 207.333 244.67Z" fill="#A1FAA1"/>
<path d="M199.249 281.72C210.828 293.3 213.723 310.276 207.934 324.553L207.718 324.961L198.337 324.062C188.427 322.144 178.968 317.349 171.295 309.676C163.62 302.002 158.824 292.541 156.906 282.634L156.007 273.249L156.418 273.034C170.695 267.246 187.671 270.139 199.249 281.72Z" fill="#A1FAA1"/>
<path d="M293.968 215.441C285.97 223.438 273 223.438 265.003 215.441C257.003 207.441 257.003 194.474 265.003 186.474C273 178.475 285.97 178.475 293.968 186.474C301.968 194.474 301.968 207.441 293.968 215.441Z" fill="#A1FAA1"/>
<path d="M302.052 178.391C290.472 166.811 287.576 149.835 293.367 135.559L293.582 135.147L302.964 136.046C312.874 137.967 322.333 142.762 330.006 150.435C337.68 158.108 342.477 167.57 344.395 177.477L345.294 186.859L344.882 187.074C330.606 192.865 313.63 189.969 302.052 178.391Z" fill="#A1FAA1"/>
<path d="M236.189 186.318C244.189 194.318 244.189 207.285 236.189 215.285C228.192 223.285 215.222 223.285 207.225 215.285C199.226 207.285 199.226 194.318 207.225 186.318C215.222 178.321 228.192 178.321 236.189 186.318Z" fill="#A1FAA1"/>
<path d="M199.14 178.235C187.562 189.816 170.586 192.709 156.309 186.921L155.898 186.706L156.797 177.323C158.715 167.414 163.511 157.954 171.186 150.279C178.859 142.606 188.318 137.811 198.228 135.894L207.609 134.994L207.825 135.403C213.616 149.679 210.719 166.655 199.14 178.235Z" fill="#A1FAA1"/>
</svg>
